<?xml version="1.0" encoding="UTF-8"?>
<svg xmlns="http://www.w3.org/2000/svg" viewBox="0 0 85.333 85.333"><defs><clipPath id="a" clipPathUnits="userSpaceOnUse"><path d="M0 64h64V0H0z" style="fill: #e71316;"/></clipPath></defs><g clip-path="url(#a)" transform="matrix(1.33333 0 0 -1.33333 0 85.333)"><path fill="#555" d="M34.103 57.215a3 3 0 1 1-6 0 14.38 14.38 0 0 0-.447-3.515H16.091a1 1 0 1 1 0-2h10.923c-.822-2.103-2.042-4.083-3.433-6.046H10.248a2.5 2.5 0 1 1 0-5h9.6c-1.473-1.967-2.928-4.036-4.133-6.281H4.3a1 1 0 0 1 0-2h10.443c-.985-2.235-1.67-4.651-1.857-7.314H2.598a1 1 0 1 1 0-2h10.25c.04-1.594.244-3.266.688-5.045a3 3 0 1 1 5.822 1.449c-1.998 8.023 1.951 13.216 6.524 19.229 4.042 5.313 8.221 10.808 8.221 18.523M37.244 29.63a1.3 1.3 0 0 0-1.299 1.298 1.3 1.3 0 0 0 1.3 1.299h11.488a201.06 201.06 0 0 0-1.337-1.77l-.628-.827zm23.15 15.72a3 3 0 1 1-6 0c0-1.224-.166-2.39-.448-3.515H42.382a1 1 0 1 1 0-2h10.922c-.76-1.947-1.863-3.788-3.126-5.608H37.244a3.303 3.303 0 0 1-3.299-3.3 3.302 3.302 0 0 1 3.3-3.297h8.038c-1.313-1.811-2.574-3.716-3.615-5.771H30.59a1 1 0 1 1 0-2h10.158c-.836-2.05-1.405-4.26-1.574-6.665H28.887a1 1 0 1 1 0-2h10.25a23.19 23.19 0 0 1 .687-5.045 3.003 3.003 0 0 1 3.636-2.186A3 3 0 0 1 45.646 7.6c-1.998 8.02 1.952 13.213 6.526 19.225 4.042 5.314 8.221 10.809 8.221 18.526" style="fill: #e71316;"/></g></svg>
