<?xml version="1.0" encoding="UTF-8"?>
<svg xmlns="http://www.w3.org/2000/svg" viewBox="0 0 85.333 85.333"><defs><clipPath id="a" clipPathUnits="userSpaceOnUse"><path d="M0 64h64V0H0z" style="fill: #e71316;"/></clipPath></defs><g clip-path="url(#a)" transform="matrix(1.33333 0 0 -1.33333 0 85.333)"><path fill="#555" d="M53.318 14.584c-.83-.291-1.615-.48-2.332-.561-2.03-.23-3.694.155-5.742 1.327-1.778 1.029-3.82 2.781-6.43 5.515a648.307 648.307 0 0 0-2.869 3.03c-3.545 3.755-6.893 7.302-9.704 9.608-4.657 3.699-9.36 5.353-13.99 4.946v8.401h17.731v-3.808a.913.913 0 0 1 1.56-.646l6.823 6.831a.914.914 0 0 1 0 1.291l-6.824 6.822a.913.913 0 0 1-1.559-.646V52.85H9.25a3 3 0 0 1-3-3V34.706a3 3 0 0 1 3-3c.25 0 .487.039.718.096.262.032.523.085.78.188.634.25 1.29.416 1.95.496 3.663.538 7.903-2.115 9.64-3.597 2.402-1.953 5.871-5.627 9.543-9.516.812-.861 1.642-1.74 2.482-2.623 2.276-2.377 4.791-4.814 7.752-6.551 3.02-1.797 6.333-2.535 9.58-2.133 1.193.145 2.418.434 3.64.864a3.02 3.02 0 0 1 2.045 2.84c0 .337-.058.671-.173.992-.559 1.554-2.302 2.371-3.889 1.822" style="fill: #e71316;"/><path fill="#555" d="M38.855 26.639l.472-.496c2.364 2.428 4.258 4.029 5.916 4.99 2.05 1.172 3.713 1.556 5.744 1.325.716-.08 1.501-.27 2.332-.56 1.586-.55 3.33.268 3.887 1.82.116.322.174.656.174.995a3.022 3.022 0 0 1-2.045 2.84 17.412 17.412 0 0 1-3.639.863c-3.248.4-6.562-.336-9.58-2.132-2.628-1.541-4.902-3.633-6.972-5.745a500.49 500.49 0 0 0 3.711-3.9M25.396 20.39c-1.137-1.116-2.174-2.077-3.063-2.8-1.731-1.478-5.971-4.133-9.64-3.592a7.892 7.892 0 0 0-1.944.495c-1.562.627-3.339-.114-3.96-1.65a2.623 2.623 0 0 1-.195-.77 2.97 2.97 0 0 1 1.891-3.131 13.905 13.905 0 0 1 3.494-.897c4.715-.498 9.514 1.162 14.266 4.936 1.039.853 2.152 1.877 3.322 3.017-.196.209-.4.422-.594.629a555.388 555.388 0 0 1-3.576 3.764M50.017 26.723V19.7a2 2 0 0 1 4 0v7.023a2 2 0 0 1-4 0M43.432 25.129v-3.855a2 2 0 1 1 4 0v3.855a2 2 0 0 1-4 0M12.706 17.652a2 2 0 0 1 2 2v7.021a2 2 0 1 1-4 0v-7.02a2 2 0 0 1 2-2M21.291 21.246v3.855a2 2 0 0 1-4 0v-3.855a2 2 0 1 1 4 0" style="fill: #e71316;"/></g></svg>
