<?xml version="1.0" encoding="UTF-8"?>
<svg xmlns="http://www.w3.org/2000/svg" viewBox="0 0 85.333 85.333"><defs><clipPath id="a" clipPathUnits="userSpaceOnUse"><path d="M0 64h64V0H0z" style="fill: #e71316;"/></clipPath></defs><g clip-path="url(#a)" transform="matrix(1.33333 0 0 -1.33333 0 85.333)"><path fill="#555" d="M36.863 30.623h-9.726c-3.702 1.809-6.263 5.601-6.263 9.99 0 6.135 4.991 11.126 11.126 11.126 6.134 0 11.126-4.991 11.126-11.126 0-4.389-2.562-8.181-6.263-9.99m.005-7.156h-9.736v3.156h9.736zm-9.736-4h9.736v-3.156h-9.736zm21.994 21.146c0 9.443-7.683 17.126-17.126 17.126-9.444 0-17.126-7.683-17.126-17.126 0-5.319 2.44-10.073 6.258-13.213V8.072a3 3 0 1 1 6 0v4.239h9.736V8.072a3 3 0 1 1 6 0v19.327c3.817 3.141 6.258 7.895 6.258 13.214" style="fill: #e71316;"/></g></svg>
