<svg id="Layer_1" data-name="Layer 1" xmlns="http://www.w3.org/2000/svg" xmlns:xlink="http://www.w3.org/1999/xlink" viewBox="0 0 41.2 51"><defs><style>.cls-1{fill:none;}.cls-2{clip-path:url(#clip-path);}.cls-3{fill:#575756;}.cls-4{fill:#fff;}</style><clipPath id="clip-path" transform="translate(-11.7 -6.8)"><rect class="cls-1" x="11.7" y="6.7" width="41.2" height="51"/></clipPath></defs><title>Document</title><g id="Ebene_1" data-name="Ebene 1"><g class="cls-2"><path class="cls-3" d="M49,23.4H40.1a3.9,3.9,0,0,1-3.9-3.9V10.7a3.9,3.9,0,0,0-3.9-3.9H15.6a3.9,3.9,0,0,0-3.9,3.9V53.9a3.9,3.9,0,0,0,3.9,3.9H49a3.9,3.9,0,0,0,3.9-3.9V27.3A4,4,0,0,0,49,23.4" transform="translate(-11.7 -6.8)"/></g><g class="cls-2"><path class="cls-3" d="M41.9,19.5h9L40.1,8.7v8.9a1.76,1.76,0,0,0,1.8,1.9" transform="translate(-11.7 -6.8)"/></g><g class="cls-2"><path class="cls-4" d="M45,49.2H19.5a1.7,1.7,0,1,1,0-3.4H45a1.75,1.75,0,0,1,1.7,1.7A1.69,1.69,0,0,1,45,49.2" transform="translate(-11.7 -6.8)"/></g><g class="cls-2"><path class="cls-4" d="M45,41.2H19.5a1.7,1.7,0,1,1,0-3.4H45a1.75,1.75,0,0,1,1.7,1.7A1.69,1.69,0,0,1,45,41.2" transform="translate(-11.7 -6.8)"/></g><g class="cls-2"><path class="cls-4" d="M45,33.2H19.5a1.7,1.7,0,1,1,0-3.4H45a1.75,1.75,0,0,1,1.7,1.7A1.63,1.63,0,0,1,45,33.2" transform="translate(-11.7 -6.8)"/></g></g></svg>