<?xml version="1.0" encoding="UTF-8"?>
<svg xmlns="http://www.w3.org/2000/svg" viewBox="0 0 85.333 85.333"><defs><clipPath id="a" clipPathUnits="userSpaceOnUse"><path d="M0 64h64V0H0z" style="fill: #e71316;"/></clipPath></defs><g clip-path="url(#a)" transform="matrix(1.33333 0 0 -1.33333 0 85.333)"><path fill="#555" d="M50.994 56.933c-.469 1.125-1.646 1.882-2.929 1.882-.354 0-.703-.059-1.036-.174-.723-.25-1.295-.749-1.609-1.404-.326-.683-.356-1.475-.083-2.232 1.891-5.254 4.036-11.207-8.17-22.365C23.972 20.584 23.024 13.088 23.968 6.783c.162-1.1.992-2.053 2.113-2.428a3.214 3.214 0 0 1 1.324-.152c.822.075 1.541.455 2.024 1.07.451.576.638 1.295.53 2.028-.923 6.177 3.381 14.103 11.803 21.746C52.38 38.68 55.14 47.02 50.994 56.933M25.826 25.502c1.08 1.479 2.332 2.986 3.748 4.528a88.037 88.037 0 0 1-2.74 2.618c-12.21 11.159-10.065 17.111-8.172 22.364.272.757.242 1.549-.084 2.231-.314.657-.885 1.155-1.609 1.405-.33.116-.68.174-1.036.174-1.283 0-2.459-.756-2.927-1.881-4.145-9.914-1.385-18.253 9.231-27.887a58.638 58.638 0 0 0 3.59-3.552" style="fill: #e71316;"/><path fill="#555" d="M33.802 12.07c.372-1.67.462-3.268.239-4.762a2.622 2.622 0 0 1 .53-2.027c.482-.615 1.2-.995 2.023-1.07a3.205 3.205 0 0 1 1.323.152c1.122.375 1.952 1.328 2.114 2.43.544 3.64.452 7.682-2.262 12.77-1.96-2.632-3.311-5.177-3.967-7.493M23.764 53.03h16.555a1 1 0 0 1 0 2H23.764a1 1 0 1 1 0-2M23.627 44.943h16.48a2.25 2.25 0 1 1 0 4.5h-16.48a2.25 2.25 0 0 1 0-4.5M39.778 40.444a1 1 0 0 1-1 1H25.096a1 1 0 0 1 0-2h13.682a1 1 0 0 1 1 1M29.37 36.624a1 1 0 1 1 0-2h5a1 1 0 1 1 0 2z" style="fill: #e71316;"/></g></svg>
